<svg width="60" height="60" viewBox="0 0 60 60" fill="none" xmlns="http://www.w3.org/2000/svg">
<path d="M30 0C13.4333 0 0 13.4333 0 30C0 46.5667 13.4333 60 30 60C32.7667 60 35 57.7667 35 55C35 53.7 34.5 52.5333 33.7 51.6333C32.9333 50.7667 32.4333 49.6 32.4333 48.3333C32.4333 45.5667 34.6667 43.3333 37.4333 43.3333H43.3333C52.5333 43.3333 60 35.8667 60 26.6667C60 11.9333 46.5667 0 30 0ZM11.6667 30C8.9 30 6.66667 27.7667 6.66667 25C6.66667 22.2333 8.9 20 11.6667 20C14.4333 20 16.6667 22.2333 16.6667 25C16.6667 27.7667 14.4333 30 11.6667 30ZM21.6667 16.6667C18.9 16.6667 16.6667 14.4333 16.6667 11.6667C16.6667 8.9 18.9 6.66667 21.6667 6.66667C24.4333 6.66667 26.6667 8.9 26.6667 11.6667C26.6667 14.4333 24.4333 16.6667 21.6667 16.6667ZM38.3333 16.6667C35.5667 16.6667 33.3333 14.4333 33.3333 11.6667C33.3333 8.9 35.5667 6.66667 38.3333 6.66667C41.1 6.66667 43.3333 8.9 43.3333 11.6667C43.3333 14.4333 41.1 16.6667 38.3333 16.6667ZM48.3333 30C45.5667 30 43.3333 27.7667 43.3333 25C43.3333 22.2333 45.5667 20 48.3333 20C51.1 20 53.3333 22.2333 53.3333 25C53.3333 27.7667 51.1 30 48.3333 30Z" fill="#75A7E5"/>
</svg>
