<svg width="263" height="87" viewBox="0 0 263 87" fill="none" xmlns="http://www.w3.org/2000/svg">
<g filter="url(#filter0_d)">
<path d="M88.624 59.344H108.208C109.792 59.344 110.944 59.536 111.664 59.92C112.384 60.256 112.864 60.808 113.104 61.576C113.344 62.344 113.464 63.376 113.464 64.672C113.464 65.92 113.344 66.928 113.104 67.696C112.864 68.464 112.456 68.992 111.88 69.28C110.968 69.76 109.72 70 108.136 70H82.216C78.856 70 76.888 69.088 76.312 67.264C76.024 66.496 75.88 65.272 75.88 63.592V23.56C75.88 22.456 75.904 21.64 75.952 21.112C76.048 20.536 76.288 19.888 76.672 19.168C77.344 17.872 79.216 17.224 82.288 17.224C85.648 17.224 87.64 18.112 88.264 19.888C88.504 20.704 88.624 21.952 88.624 23.632V59.344ZM118.138 38.392C118.138 37.288 118.162 36.472 118.21 35.944C118.306 35.368 118.522 34.72 118.858 34C119.53 32.752 121.402 32.128 124.474 32.128C126.778 32.128 128.41 32.536 129.37 33.352C130.186 34.024 130.618 35.056 130.666 36.448C130.714 36.928 130.738 37.624 130.738 38.536V63.736C130.738 64.84 130.69 65.68 130.594 66.256C130.546 66.784 130.33 67.408 129.946 68.128C129.322 69.376 127.474 70 124.402 70C121.378 70 119.53 69.352 118.858 68.056C118.522 67.336 118.306 66.712 118.21 66.184C118.162 65.656 118.138 64.816 118.138 63.664V38.392ZM129.946 25.072C129.61 25.744 128.986 26.224 128.074 26.512C127.162 26.8 125.938 26.944 124.402 26.944C122.914 26.944 121.714 26.8 120.802 26.512C119.89 26.224 119.242 25.72 118.858 25C118.522 24.28 118.306 23.656 118.21 23.128C118.162 22.552 118.138 21.712 118.138 20.608C118.138 19.504 118.162 18.688 118.21 18.16C118.306 17.584 118.522 16.96 118.858 16.288C119.53 14.992 121.402 14.344 124.474 14.344C127.498 14.344 129.322 14.992 129.946 16.288C130.33 17.008 130.546 17.656 130.594 18.232C130.69 18.76 130.738 19.576 130.738 20.68C130.738 21.784 130.69 22.624 130.594 23.2C130.546 23.728 130.33 24.352 129.946 25.072ZM157.297 32.128C161.569 32.128 165.481 34.024 169.033 37.816C172.633 41.608 174.433 46.024 174.433 51.064C174.433 56.056 172.657 60.448 169.105 64.24C165.553 67.984 161.737 69.856 157.657 69.856C153.577 69.856 150.673 68.704 148.945 66.4C148.561 68.752 146.497 69.928 142.753 69.928C139.729 69.928 137.881 69.28 137.209 67.984C136.873 67.264 136.657 66.64 136.561 66.112C136.513 65.536 136.489 64.696 136.489 63.592V20.608C136.489 19.504 136.513 18.688 136.561 18.16C136.657 17.584 136.873 16.96 137.209 16.288C137.881 14.992 139.753 14.344 142.825 14.344C145.849 14.344 147.673 14.992 148.297 16.288C148.681 17.008 148.897 17.656 148.945 18.232C149.041 18.76 149.089 19.576 149.089 20.68V35.656C151.009 33.304 153.745 32.128 157.297 32.128ZM150.961 55.384C152.161 56.68 153.649 57.328 155.425 57.328C157.201 57.328 158.713 56.68 159.961 55.384C161.209 54.088 161.833 52.648 161.833 51.064C161.833 49.48 161.257 48.04 160.105 46.744C158.953 45.4 157.417 44.728 155.497 44.728C153.577 44.728 152.041 45.4 150.889 46.744C149.785 48.088 149.233 49.552 149.233 51.136C149.233 52.672 149.809 54.088 150.961 55.384ZM215.675 46.528C215.675 49.456 214.931 51.64 213.443 53.08C212.003 54.472 210.395 55.168 208.619 55.168H191.555C191.555 56.512 192.347 57.64 193.931 58.552C195.515 59.464 197.099 59.92 198.683 59.92C201.467 59.92 203.651 59.632 205.235 59.056L206.027 58.768C207.179 58.24 208.139 57.976 208.907 57.976C210.443 57.976 211.763 59.056 212.867 61.216C213.491 62.512 213.803 63.616 213.803 64.528C213.803 68.8 208.691 70.936 198.467 70.936C194.915 70.936 191.747 70.336 188.963 69.136C186.227 67.888 184.091 66.256 182.555 64.24C179.531 60.352 178.019 56.008 178.019 51.208C178.019 45.16 179.963 40.336 183.851 36.736C187.787 33.088 192.683 31.264 198.539 31.264C205.211 31.264 210.107 33.616 213.227 38.32C214.859 40.816 215.675 43.552 215.675 46.528ZM200.483 48.616C202.307 48.616 203.219 47.848 203.219 46.312C203.219 45.208 202.787 44.32 201.923 43.648C201.107 42.976 199.907 42.64 198.323 42.64C196.787 42.64 195.251 43.288 193.715 44.584C192.179 45.832 191.411 47.176 191.411 48.616H200.483ZM246.148 32.488C247.06 32.776 247.804 33.28 248.38 34C249.004 34.672 249.316 35.776 249.316 37.312C249.316 38.848 248.86 40.528 247.948 42.352C247.036 44.176 245.716 45.088 243.988 45.088C243.124 45.088 242.284 44.896 241.468 44.512C240.7 44.128 239.668 43.936 238.372 43.936C237.076 43.936 235.852 44.392 234.7 45.304C233.596 46.216 233.044 47.32 233.044 48.616V63.736C233.044 64.84 232.996 65.68 232.9 66.256C232.852 66.784 232.636 67.408 232.252 68.128C231.532 69.376 229.66 70 226.636 70C224.332 70 222.676 69.592 221.668 68.776C220.9 68.104 220.468 67.072 220.372 65.68C220.372 65.2 220.372 64.504 220.372 63.592V38.32C220.372 37.216 220.396 36.4 220.444 35.872C220.54 35.296 220.756 34.672 221.092 34C221.764 32.704 223.636 32.056 226.708 32.056C229.588 32.056 231.388 32.608 232.108 33.712C232.636 34.48 232.9 35.272 232.9 36.088C233.14 35.752 233.476 35.344 233.908 34.864C234.388 34.384 235.372 33.736 236.86 32.92C238.348 32.104 239.644 31.696 240.748 31.696C241.9 31.696 242.86 31.768 243.628 31.912C244.396 32.008 245.236 32.2 246.148 32.488ZM257.267 58.12C258.083 58.936 258.491 60.616 258.491 63.16V63.448C258.491 64.6 258.443 65.464 258.347 66.04C258.299 66.568 258.059 67.216 257.627 67.984C256.907 69.376 255.083 70.072 252.155 70.072C249.275 70.072 247.355 69.616 246.395 68.704C245.483 67.792 245.027 66.064 245.027 63.52V63.232C245.027 62.128 245.051 61.288 245.099 60.712C245.195 60.136 245.435 59.488 245.819 58.768C246.539 57.328 248.339 56.608 251.219 56.608C254.147 56.608 256.163 57.112 257.267 58.12Z" fill="#307FE2"/>
</g>
<path d="M0 30.7C0 29.7611 0.767512 29 1.71429 29H46.2857C47.2325 29 48 29.7611 48 30.7C48 31.6389 47.2325 32.4 46.2857 32.4H24H1.71429C0.767513 32.4 0 31.6389 0 30.7Z" fill="#307FE2"/>
<path d="M0 61.3C0 60.3611 0.767512 59.6 1.71429 59.6H29.1429C30.0896 59.6 30.8571 60.3611 30.8571 61.3C30.8571 62.2389 30.0896 63 29.1429 63H1.71429C0.767513 63 0 62.2389 0 61.3Z" fill="#307FE2"/>
<path d="M0 46C0 45.0611 0.767512 44.3 1.71429 44.3H46.2857C47.2325 44.3 48 45.0611 48 46C48 46.9389 47.2325 47.7 46.2857 47.7H1.71429C0.767513 47.7 0 46.9389 0 46Z" fill="#307FE2"/>
<defs>
<filter id="filter0_d" x="71.88" y="14.344" width="190.611" height="64.592" filterUnits="userSpaceOnUse" color-interpolation-filters="sRGB">
<feFlood flood-opacity="0" result="BackgroundImageFix"/>
<feColorMatrix in="SourceAlpha" type="matrix" values="0 0 0 0 0 0 0 0 0 0 0 0 0 0 0 0 0 0 127 0" result="hardAlpha"/>
<feOffset dy="4"/>
<feGaussianBlur stdDeviation="2"/>
<feColorMatrix type="matrix" values="0 0 0 0 0 0 0 0 0 0 0 0 0 0 0 0 0 0 0.25 0"/>
<feBlend mode="normal" in2="BackgroundImageFix" result="effect1_dropShadow"/>
<feBlend mode="normal" in="SourceGraphic" in2="effect1_dropShadow" result="shape"/>
</filter>
</defs>
</svg>
