<svg width="17" height="15" viewBox="0 0 17 15" fill="none" xmlns="http://www.w3.org/2000/svg">
<path d="M15 4.3999H1.99999C1.11634 4.3999 0.399994 5.11625 0.399994 5.9999V12.9999C0.399994 13.8836 1.11634 14.5999 1.99999 14.5999H15C15.8836 14.5999 16.6 13.8836 16.6 12.9999V5.9999C16.6 5.11625 15.8836 4.3999 15 4.3999Z" stroke="#4289E2" stroke-width="0.8"/>
<path d="M14.359 11.7465L8.85898 13.8619C8.62791 13.9508 8.37209 13.9508 8.14102 13.8619L2.64102 11.7465C2.25483 11.598 2 11.227 2 10.8132V2.35395C2 1.68114 2.65103 1.20031 3.29409 1.39817L8.20591 2.9095C8.39754 2.96846 8.60246 2.96846 8.79409 2.9095L13.7059 1.39817C14.349 1.20031 15 1.68114 15 2.35395V10.8132C15 11.227 14.7452 11.598 14.359 11.7465Z" fill="white" stroke="#4289E2" stroke-width="0.8"/>
<path d="M8.5 3V14" stroke="#4289E2" stroke-width="0.8" stroke-linecap="round"/>
</svg>
