<svg width="429" height="172" viewBox="0 0 429 172" fill="none" xmlns="http://www.w3.org/2000/svg">
<g filter="url(#filter0_d)">
<path d="M110.832 78.792H136.944C139.056 78.792 140.592 79.048 141.552 79.56C142.512 80.008 143.152 80.744 143.472 81.768C143.792 82.792 143.952 84.168 143.952 85.896C143.952 87.56 143.792 88.904 143.472 89.928C143.152 90.952 142.608 91.656 141.84 92.04C140.624 92.68 138.96 93 136.848 93H102.288C97.808 93 95.184 91.784 94.416 89.352C94.032 88.328 93.84 86.696 93.84 84.456V31.08C93.84 29.608 93.872 28.52 93.936 27.816C94.064 27.048 94.384 26.184 94.896 25.224C95.792 23.496 98.288 22.632 102.384 22.632C106.864 22.632 109.52 23.816 110.352 26.184C110.672 27.272 110.832 28.936 110.832 31.176V78.792ZM150.184 50.856C150.184 49.384 150.216 48.296 150.28 47.592C150.408 46.824 150.696 45.96 151.144 45C152.04 43.336 154.536 42.504 158.632 42.504C161.704 42.504 163.88 43.048 165.16 44.136C166.248 45.032 166.824 46.408 166.888 48.264C166.952 48.904 166.984 49.832 166.984 51.048V84.648C166.984 86.12 166.92 87.24 166.792 88.008C166.728 88.712 166.44 89.544 165.928 90.504C165.096 92.168 162.632 93 158.536 93C154.504 93 152.04 92.136 151.144 90.408C150.696 89.448 150.408 88.616 150.28 87.912C150.216 87.208 150.184 86.088 150.184 84.552V50.856ZM165.928 33.096C165.48 33.992 164.648 34.632 163.432 35.016C162.216 35.4 160.584 35.592 158.536 35.592C156.552 35.592 154.952 35.4 153.736 35.016C152.52 34.632 151.656 33.96 151.144 33C150.696 32.04 150.408 31.208 150.28 30.504C150.216 29.736 150.184 28.616 150.184 27.144C150.184 25.672 150.216 24.584 150.28 23.88C150.408 23.112 150.696 22.28 151.144 21.384C152.04 19.656 154.536 18.792 158.632 18.792C162.664 18.792 165.096 19.656 165.928 21.384C166.44 22.344 166.728 23.208 166.792 23.976C166.92 24.68 166.984 25.768 166.984 27.24C166.984 28.712 166.92 29.832 166.792 30.6C166.728 31.304 166.44 32.136 165.928 33.096ZM202.397 42.504C208.093 42.504 213.309 45.032 218.045 50.088C222.845 55.144 225.245 61.032 225.245 67.752C225.245 74.408 222.877 80.264 218.141 85.32C213.405 90.312 208.317 92.808 202.877 92.808C197.437 92.808 193.565 91.272 191.261 88.2C190.749 91.336 187.997 92.904 183.005 92.904C178.973 92.904 176.509 92.04 175.613 90.312C175.165 89.352 174.877 88.52 174.749 87.816C174.685 87.048 174.653 85.928 174.653 84.456V27.144C174.653 25.672 174.685 24.584 174.749 23.88C174.877 23.112 175.165 22.28 175.613 21.384C176.509 19.656 179.005 18.792 183.101 18.792C187.133 18.792 189.565 19.656 190.397 21.384C190.909 22.344 191.197 23.208 191.261 23.976C191.389 24.68 191.453 25.768 191.453 27.24V47.208C194.013 44.072 197.661 42.504 202.397 42.504ZM193.949 73.512C195.549 75.24 197.533 76.104 199.901 76.104C202.269 76.104 204.285 75.24 205.949 73.512C207.613 71.784 208.445 69.864 208.445 67.752C208.445 65.64 207.677 63.72 206.141 61.992C204.605 60.2 202.557 59.304 199.997 59.304C197.437 59.304 195.389 60.2 193.853 61.992C192.381 63.784 191.645 65.736 191.645 67.848C191.645 69.896 192.413 71.784 193.949 73.512ZM280.233 61.704C280.233 65.608 279.241 68.52 277.257 70.44C275.337 72.296 273.193 73.224 270.825 73.224H248.073C248.073 75.016 249.129 76.52 251.241 77.736C253.353 78.952 255.465 79.56 257.577 79.56C261.289 79.56 264.201 79.176 266.313 78.408L267.369 78.024C268.905 77.32 270.185 76.968 271.209 76.968C273.257 76.968 275.017 78.408 276.489 81.288C277.321 83.016 277.737 84.488 277.737 85.704C277.737 91.4 270.921 94.248 257.289 94.248C252.553 94.248 248.329 93.448 244.617 91.848C240.969 90.184 238.121 88.008 236.073 85.32C232.041 80.136 230.025 74.344 230.025 67.944C230.025 59.88 232.617 53.448 237.801 48.648C243.049 43.784 249.577 41.352 257.385 41.352C266.281 41.352 272.809 44.488 276.969 50.76C279.145 54.088 280.233 57.736 280.233 61.704ZM259.977 64.488C262.409 64.488 263.625 63.464 263.625 61.416C263.625 59.944 263.049 58.76 261.897 57.864C260.809 56.968 259.209 56.52 257.097 56.52C255.049 56.52 253.001 57.384 250.953 59.112C248.905 60.776 247.881 62.568 247.881 64.488H259.977ZM320.864 42.984C322.08 43.368 323.072 44.04 323.84 45C324.672 45.896 325.088 47.368 325.088 49.416C325.088 51.464 324.48 53.704 323.264 56.136C322.048 58.568 320.288 59.784 317.984 59.784C316.832 59.784 315.712 59.528 314.624 59.016C313.6 58.504 312.224 58.248 310.496 58.248C308.768 58.248 307.136 58.856 305.6 60.072C304.128 61.288 303.392 62.76 303.392 64.488V84.648C303.392 86.12 303.328 87.24 303.2 88.008C303.136 88.712 302.848 89.544 302.336 90.504C301.376 92.168 298.88 93 294.848 93C291.776 93 289.568 92.456 288.224 91.368C287.2 90.472 286.624 89.096 286.496 87.24C286.496 86.6 286.496 85.672 286.496 84.456V50.76C286.496 49.288 286.528 48.2 286.592 47.496C286.72 46.728 287.008 45.896 287.456 45C288.352 43.272 290.848 42.408 294.944 42.408C298.784 42.408 301.184 43.144 302.144 44.616C302.848 45.64 303.2 46.696 303.2 47.784C303.52 47.336 303.968 46.792 304.544 46.152C305.184 45.512 306.496 44.648 308.48 43.56C310.464 42.472 312.192 41.928 313.664 41.928C315.2 41.928 316.48 42.024 317.504 42.216C318.528 42.344 319.648 42.6 320.864 42.984ZM335.689 77.16C336.777 78.248 337.321 80.488 337.321 83.88V84.264C337.321 85.8 337.257 86.952 337.129 87.72C337.065 88.424 336.745 89.288 336.169 90.312C335.209 92.168 332.777 93.096 328.873 93.096C325.033 93.096 322.473 92.488 321.193 91.272C319.977 90.056 319.369 87.752 319.369 84.36V83.976C319.369 82.504 319.401 81.384 319.465 80.616C319.593 79.848 319.913 78.984 320.425 78.024C321.385 76.104 323.785 75.144 327.625 75.144C331.529 75.144 334.217 75.816 335.689 77.16Z" fill="#307FE2"/>
</g>
<g filter="url(#filter1_d)">
<path d="M14.97 141.86H20.67V138.59H5.19V141.86H10.95V143.39C10.95 148.1 8.7 153.17 4.08 155.24L6.33 158.39C9.57 156.92 11.79 153.89 13.02 150.29C14.25 153.62 16.44 156.32 19.65 157.7L21.81 154.58C17.19 152.66 14.97 147.89 14.97 143.39V141.86ZM23.22 135.95V163.58H27.18V135.95H23.22ZM42.6577 143.6H48.2977V140.45H42.6577V136.61H38.6977V140.45H32.9377V143.6H38.6977V144.56C38.6977 148.76 36.5377 153.44 32.0077 155.48L34.1377 158.51C37.2877 157.1 39.5077 154.28 40.7377 150.95C41.9677 154.1 44.1577 156.74 47.2777 158.03L49.3777 155C44.8477 153.05 42.6577 148.55 42.6577 144.56V143.6ZM50.8477 135.95V163.58H54.8077V135.95H50.8477ZM80.9953 154.19C82.1053 148.31 82.1053 144.41 82.1053 140.96V138.32H62.0353V141.47H78.1453C78.1453 144.68 78.0853 148.52 77.0353 153.74L80.9953 154.19ZM72.2953 157.07V147.56H68.3353V157.07H59.5153V160.25H84.5053V157.07H72.2953ZM110.83 138.44H104.5V135.77H100.54V138.44H94.2098V141.53H110.86L110.83 138.44ZM99.3998 147.35C99.3998 145.97 100.6 145.28 102.55 145.28C104.47 145.28 105.7 145.97 105.7 147.35C105.7 148.76 104.47 149.42 102.55 149.42C100.6 149.42 99.3998 148.76 99.3998 147.35ZM109.45 147.35C109.45 144.32 106.69 142.4 102.55 142.4C98.3798 142.4 95.6198 144.32 95.6198 147.35C95.6198 150.38 98.3798 152.33 102.55 152.33C106.69 152.33 109.45 150.38 109.45 147.35ZM102.34 156.92H112.96V160.16H102.34V156.92ZM98.4398 163.25H116.83V153.8H98.4398V163.25ZM112.84 135.98V152.63H116.83V135.98H112.84ZM143.738 144.2H128.468V140.09H143.528V136.94H124.538V147.35H143.738V144.2ZM128.408 154.82H124.448V163.1H143.948V159.95H128.408V154.82ZM121.508 149.6V152.75H146.498V149.6H121.508ZM160.612 141.68H166.012V153.74H160.612V141.68ZM156.712 156.86H169.912V138.56H156.712V156.86ZM181.522 146.36H177.502V135.98H173.542V163.58H177.502V149.63H181.522V146.36ZM195.95 136.49C189.86 136.49 185.96 138.53 185.96 141.86C185.96 145.22 189.86 147.23 195.95 147.23C202.04 147.23 205.97 145.22 205.97 141.86C205.97 138.53 202.04 136.49 195.95 136.49ZM195.95 139.52C199.73 139.52 201.89 140.3 201.89 141.86C201.89 143.42 199.73 144.2 195.95 144.2C192.2 144.2 190.04 143.42 190.04 141.86C190.04 140.3 192.2 139.52 195.95 139.52ZM186.38 153.89V163.25H205.46V153.89H186.38ZM201.56 156.98V160.16H190.25V156.98H201.56ZM183.47 148.82V151.94H208.43V148.82H183.47ZM223.547 139.25C227.567 139.25 229.457 139.82 229.457 141.05C229.457 142.34 227.567 142.88 223.547 142.88C219.557 142.88 217.667 142.34 217.667 141.05C217.667 139.82 219.557 139.25 223.547 139.25ZM223.547 145.76C229.877 145.76 233.567 144.11 233.567 141.05C233.567 138.02 229.877 136.34 223.547 136.34C217.247 136.34 213.557 138.02 213.557 141.05C213.557 144.11 217.247 145.76 223.547 145.76ZM217.877 158.84H232.997V151.73H213.917V154.64H229.097V156.11H213.947V163.37H233.717V160.4H217.877V158.84ZM211.067 147.08V150.17H236.027V147.08H211.067ZM259.142 148.88C255.692 147.65 254.162 145.04 254.162 142.25V142.16H258.332V139.04H254.162V136.19H250.412V139.04H246.212V142.16H250.412V142.25C250.412 145.19 248.942 148.01 245.432 149.33L247.232 152.27C249.752 151.34 251.402 149.6 252.332 147.47C253.292 149.42 254.912 150.98 257.372 151.79L259.142 148.88ZM249.992 157.25H265.052V163.61H269.012V154.07H249.992V157.25ZM265.262 135.95V142.88H263.192V136.43H259.532V152.75H263.192V146.06H265.262V152.9H269.012V135.95H265.262ZM285.54 137.33C279.75 137.33 275.25 140.51 275.25 145.34C275.25 150.14 279.75 153.32 285.54 153.32C291.36 153.32 295.86 150.14 295.86 145.34C295.86 140.51 291.36 137.33 285.54 137.33ZM285.54 140.57C289.32 140.57 291.99 142.34 291.99 145.34C291.99 148.28 289.32 150.08 285.54 150.08C281.79 150.08 279.12 148.28 279.12 145.34C279.12 142.34 281.79 140.57 285.54 140.57ZM273.06 157.04V160.28H298.08V157.04H273.06ZM315.117 157.31V153.2H323.487V150.02H307.467V146.93H322.857V137.72H303.507V140.87H318.957V143.84H303.537V153.2H311.157V157.31H300.657V160.55H325.677V157.31H315.117ZM350.712 145.07C347.562 145.73 344.682 145.94 339.942 145.97V140.48H348.372V137.39H336.012V149.09H338.322C344.202 149.09 347.532 148.94 351.102 148.16L350.712 145.07ZM342.522 158.42H356.802V150.8H338.562V153.92H352.902V155.54H338.592V163.25H357.612V160.16H342.522V158.42ZM356.802 141.17V135.92H352.842V149.66H356.802V144.38H360.462V141.17H356.802ZM367.239 149.33H373.809V138.62H363.369V141.8H369.999V146.21H363.399V157.46H365.349C368.679 157.46 371.679 157.37 375.219 156.8L374.919 153.59C372.159 154.01 369.759 154.16 367.239 154.22V149.33ZM382.599 135.92V146.36H380.109V136.43H376.419V162.26H380.109V149.54H382.599V163.55H386.349V135.92H382.599ZM395.257 141.71H404.197V138.5H391.327V157.01H393.667C398.467 157.01 402.247 156.86 406.417 156.11L406.027 152.84C402.457 153.44 399.187 153.65 395.257 153.71V141.71ZM415.897 146.15H411.877V135.95H407.917V163.64H411.877V149.42H415.897V146.15ZM421.415 161.42C423.005 161.42 424.175 160.16 424.175 158.54C424.175 156.89 423.005 155.66 421.415 155.66C419.855 155.66 418.685 156.89 418.685 158.54C418.685 160.16 419.855 161.42 421.415 161.42Z" fill="#307FE2"/>
</g>
<defs>
<filter id="filter0_d" x="89.8401" y="18.792" width="251.481" height="83.456" filterUnits="userSpaceOnUse" color-interpolation-filters="sRGB">
<feFlood flood-opacity="0" result="BackgroundImageFix"/>
<feColorMatrix in="SourceAlpha" type="matrix" values="0 0 0 0 0 0 0 0 0 0 0 0 0 0 0 0 0 0 127 0" result="hardAlpha"/>
<feOffset dy="4"/>
<feGaussianBlur stdDeviation="2"/>
<feColorMatrix type="matrix" values="0 0 0 0 0 0 0 0 0 0 0 0 0 0 0 0 0 0 0.25 0"/>
<feBlend mode="normal" in2="BackgroundImageFix" result="effect1_dropShadow"/>
<feBlend mode="normal" in="SourceGraphic" in2="effect1_dropShadow" result="shape"/>
</filter>
<filter id="filter1_d" x="0.0800781" y="135.77" width="428.095" height="35.87" filterUnits="userSpaceOnUse" color-interpolation-filters="sRGB">
<feFlood flood-opacity="0" result="BackgroundImageFix"/>
<feColorMatrix in="SourceAlpha" type="matrix" values="0 0 0 0 0 0 0 0 0 0 0 0 0 0 0 0 0 0 127 0" result="hardAlpha"/>
<feOffset dy="4"/>
<feGaussianBlur stdDeviation="2"/>
<feColorMatrix type="matrix" values="0 0 0 0 0 0 0 0 0 0 0 0 0 0 0 0 0 0 0.25 0"/>
<feBlend mode="normal" in2="BackgroundImageFix" result="effect1_dropShadow"/>
<feBlend mode="normal" in="SourceGraphic" in2="effect1_dropShadow" result="shape"/>
</filter>
</defs>
</svg>
