 <svg width="40" height="40" viewBox="0 0 40 40" fill="none" xmlns="http://www.w3.org/2000/svg">
<g filter="url(#filter0_d)">
<rect x="4" width="32" height="32" rx="5" fill="white"/>
</g>
<rect x="12.4" y="12.4" width="16.2" height="10.2" rx="1.6" stroke="#4289E2" stroke-width="0.8"/>
<path d="M26.359 19.7465L20.859 21.8619C20.6279 21.9508 20.3721 21.9508 20.141 21.8619L14.641 19.7465C14.2548 19.598 14 19.227 14 18.8132V10.354C14 9.68115 14.651 9.20032 15.2941 9.39818L20.2059 10.9095C20.3975 10.9685 20.6025 10.9685 20.7941 10.9095L25.7059 9.39818C26.349 9.20032 27 9.68115 27 10.354V18.8132C27 19.227 26.7452 19.598 26.359 19.7465Z" fill="white" stroke="#4289E2" stroke-width="0.8"/>
<path d="M20.5 11V22" stroke="#4289E2" stroke-width="0.8" stroke-linecap="round"/>
<defs>
<filter id="filter0_d" x="0" y="0" width="40" height="40" filterUnits="userSpaceOnUse" color-interpolation-filters="sRGB">
<feFlood flood-opacity="0" result="BackgroundImageFix"/>
<feColorMatrix in="SourceAlpha" type="matrix" values="0 0 0 0 0 0 0 0 0 0 0 0 0 0 0 0 0 0 127 0" result="hardAlpha"/>
<feOffset dy="4"/>
<feGaussianBlur stdDeviation="2"/>
<feComposite in2="hardAlpha" operator="out"/>
<feColorMatrix type="matrix" values="0 0 0 0 0 0 0 0 0 0 0 0 0 0 0 0 0 0 0.25 0"/>
<feBlend mode="normal" in2="BackgroundImageFix" result="effect1_dropShadow"/>
<feBlend mode="normal" in="SourceGraphic" in2="effect1_dropShadow" result="shape"/>
</filter>
</defs>
</svg>
